<?xml version="1.0" encoding="UTF-8" standalone="no"?><!DOCTYPE svg PUBLIC "-//W3C//DTD SVG 1.1//EN" "http://www.w3.org/Graphics/SVG/1.1/DTD/svg11.dtd"><svg width="100%" height="100%" viewBox="0 0 508 69" version="1.1" xmlns="http://www.w3.org/2000/svg" xmlns:xlink="http://www.w3.org/1999/xlink" xml:space="preserve" xmlns:serif="http://www.serif.com/" style="fill-rule:evenodd;clip-rule:evenodd;stroke-linejoin:round;stroke-miterlimit:2;"><rect id="prevision-logo-purple" x="0.022" y="0.011" width="507.402" height="68.031" style="fill:none;"/><clipPath id="_clip1"><rect x="0.022" y="0.011" width="507.402" height="68.031"/></clipPath><g clip-path="url(#_clip1)"><path d="M421.018,67.965c-1.532,0 -2.838,-0.529 -3.919,-1.587c-1.08,-1.059 -1.621,-2.399 -1.621,-4.02c0,-1.666 0.529,-3.017 1.588,-4.053c1.058,-1.036 2.375,-1.554 3.952,-1.554c1.576,0 2.893,0.518 3.952,1.554c1.058,1.036 1.587,2.387 1.587,4.053c0,1.621 -0.54,2.961 -1.621,4.02c-1.081,1.058 -2.387,1.587 -3.918,1.587Z" style="fill:#5756a2;fill-rule:nonzero;"/><path d="M17.333,68.168l-8.782,0l0,-59.72l-8.529,-8.428l16.013,0l0,-0.009l20.068,0l0,0.01c0.089,-0.001 0.178,-0.001 0.266,-0.001c5.826,0.028 11.567,2.312 15.798,6.275c7.103,6.652 9.434,17.894 5.096,26.961c-3.735,7.808 -12.073,13.198 -20.894,13.226c-0.057,0 -0.17,0 -0.266,0l0,0l-3.436,0l0,-0.009l-8.782,-8.678l12.097,0c5.772,-0.007 11.81,-3.379 14.045,-9.715c1.982,-5.617 0.097,-12.365 -4.621,-16.172c-2.516,-2.029 -5.727,-3.173 -8.97,-3.209c-0.063,0 -0.126,-0.001 -0.19,-0.001c-0.047,0.001 -0.095,0.001 -0.143,0.002l0,-0.002l-18.77,0l0,59.47Zm464.621,0c-4.819,0 -9.165,-1.047 -13.038,-3.141c-3.874,-2.095 -6.914,-5 -9.121,-8.715c-2.206,-3.716 -3.31,-7.871 -3.31,-12.465c0,-4.593 1.104,-8.748 3.31,-12.464c2.207,-3.715 5.247,-6.62 9.121,-8.715c3.873,-2.094 8.219,-3.141 13.038,-3.141c4.819,0 9.165,1.047 13.039,3.141c3.873,2.095 6.913,4.988 9.12,8.681c2.207,3.694 3.31,7.86 3.31,12.498c0,4.639 -1.103,8.805 -3.31,12.499c-2.207,3.693 -5.247,6.586 -9.12,8.681c-3.874,2.094 -8.22,3.141 -13.039,3.141Zm-214.187,-40.935l-4.558,1.399c-0.843,-0.332 -1.701,-0.619 -2.572,-0.863c-2.252,-0.631 -4.436,-0.946 -6.553,-0.946c-3.468,0 -6.046,0.586 -7.735,1.757c-1.689,1.171 -2.533,2.724 -2.533,4.661c0,1.351 0.484,2.455 1.452,3.31c0.968,0.856 2.196,1.532 3.682,2.027c1.486,0.495 3.513,1.058 6.08,1.689c3.513,0.811 6.396,1.655 8.647,2.533c2.252,0.879 4.178,2.218 5.777,4.02c1.598,1.801 2.398,4.234 2.398,7.296c0,2.612 -0.71,4.977 -2.128,7.094c-1.419,2.116 -3.57,3.805 -6.452,5.066c-2.882,1.261 -6.395,1.892 -10.539,1.892c-3.648,0 -7.172,-0.518 -10.573,-1.554c-3.4,-1.036 -6.091,-2.409 -8.073,-4.121l3.04,-6.823c1.937,1.531 4.313,2.781 7.128,3.749c2.815,0.969 5.641,1.453 8.478,1.453c3.513,0 6.137,-0.563 7.871,-1.689c1.734,-1.126 2.601,-2.612 2.601,-4.459c0,-1.351 -0.485,-2.466 -1.453,-3.344c-0.968,-0.878 -2.196,-1.565 -3.682,-2.06c-1.486,-0.496 -3.513,-1.059 -6.08,-1.689c-3.603,-0.856 -6.519,-1.712 -8.749,-2.568c-2.229,-0.855 -4.143,-2.195 -5.742,-4.019c-1.599,-1.824 -2.398,-4.29 -2.398,-7.398c0,-2.612 0.709,-4.988 2.128,-7.127c1.419,-2.139 3.558,-3.839 6.418,-5.1c2.86,-1.262 6.361,-1.892 10.505,-1.892c2.882,0 5.72,0.36 8.512,1.081c2.792,0.72 5.202,1.756 7.228,3.107l0,0c0,0 1.173,0.734 2.712,2.034l-4.04,1.24l-0.409,0.125l-0.388,0.119Zm59.144,40.935c-4.819,0 -9.165,-1.047 -13.039,-3.141c-3.873,-2.095 -6.913,-5 -9.12,-8.715c-2.207,-3.716 -3.31,-7.871 -3.31,-12.465c0,-4.593 1.103,-8.748 3.31,-12.464c2.207,-3.715 5.247,-6.62 9.12,-8.715c3.874,-2.094 8.22,-3.141 13.039,-3.141c4.819,0 9.165,1.047 13.038,3.141c3.874,2.095 6.914,4.988 9.121,8.681c2.206,3.694 3.31,7.86 3.31,12.498c0,4.639 -1.104,8.805 -3.31,12.499c-2.207,3.693 -5.247,6.586 -9.121,8.681c-3.873,2.094 -8.219,3.141 -13.038,3.141Zm118.833,-0.676l-8.783,0l0,-44.538l8.765,-2.69l0,-0.062l0.018,0l0,47.29Zm-368.051,0l-8.783,0l0,-47.29l19.457,0c4.098,0 7.668,0.676 10.708,2.027c3.04,1.351 5.37,3.288 6.992,5.81c1.621,2.522 2.432,5.517 2.432,8.985c0,3.558 -0.867,6.621 -2.601,9.188c-1.734,2.567 -4.222,4.481 -7.465,5.742l10.877,15.538l-9.458,0l-9.661,-13.849c-0.405,0.045 -1.013,0.068 -1.824,0.068l-10.674,0l0,13.781Zm213.007,0l-8.782,0l0,-44.599l8.758,-2.688l0,-0.003l0.024,0l0,47.29Zm-66.746,0l-8.783,0l0,-44.538l8.765,-2.69l0,-0.062l0.018,0l0,47.29Zm-69.787,-39.926l-25.739,0l0,12.146l22.834,0l0,7.228l-22.834,0l0,13.189l26.685,0l0,7.363l-35.467,0l0,-47.29l34.521,0l0,7.364Zm217.602,39.926l-8.715,0l0,-47.29l7.228,0l26.077,32.023l0,-32.023l8.715,0l0,47.29l-7.228,0l-26.077,-32.022l0,32.022Zm-183.553,0l-8.647,0l-20.673,-47.29l9.526,0l15.741,36.481l15.876,-36.481l8.782,0l-20.605,47.29Zm293.738,-7.026c3.153,0 5.99,-0.709 8.512,-2.128c2.523,-1.418 4.504,-3.4 5.945,-5.945c1.442,-2.544 2.162,-5.393 2.162,-8.546c0,-3.152 -0.72,-6.001 -2.162,-8.546c-1.441,-2.544 -3.422,-4.526 -5.945,-5.945c-2.522,-1.418 -5.359,-2.128 -8.512,-2.128c-3.152,0 -5.99,0.71 -8.512,2.128c-2.522,1.419 -4.504,3.401 -5.945,5.945c-1.441,2.545 -2.162,5.394 -2.162,8.546c0,3.153 0.721,6.002 2.162,8.546c1.441,2.545 3.423,4.527 5.945,5.945c2.522,1.419 5.36,2.128 8.512,2.128Zm-155.043,0c3.152,0 5.99,-0.709 8.512,-2.128c2.522,-1.418 4.504,-3.4 5.945,-5.945c1.441,-2.544 2.162,-5.393 2.162,-8.546c0,-3.152 -0.721,-6.001 -2.162,-8.546c-1.441,-2.544 -3.423,-4.526 -5.945,-5.945c-2.522,-1.418 -5.36,-2.128 -8.512,-2.128c-3.153,0 -5.99,0.71 -8.512,2.128c-2.523,1.419 -4.504,3.401 -5.945,5.945c-1.442,2.545 -2.162,5.394 -2.162,8.546c0,3.153 0.72,6.002 2.162,8.546c1.441,2.545 3.422,4.527 5.945,5.945c2.522,1.419 5.359,2.128 8.512,2.128Zm-238.949,-32.832l-10.269,0l0,18.848l10.269,0c3.828,0 6.733,-0.822 8.714,-2.466c1.982,-1.644 2.973,-3.974 2.973,-6.992c0,-3.017 -0.991,-5.337 -2.973,-6.958c-1.981,-1.621 -4.886,-2.432 -8.714,-2.432Z" style="fill:#5756a2;fill-rule:nonzero;"/></g></svg>